<?xml version="1.0" encoding="utf-8"?>
<!-- Generator: Adobe Illustrator 16.0.0, SVG Export Plug-In . SVG Version: 6.00 Build 0)  -->
<!DOCTYPE svg PUBLIC "-//W3C//DTD SVG 1.1//EN" "http://www.w3.org/Graphics/SVG/1.1/DTD/svg11.dtd">
<svg version="1.1" id="Layer_1" xmlns="http://www.w3.org/2000/svg" xmlns:xlink="http://www.w3.org/1999/xlink" x="0px" y="0px"
	 width="18px" height="18px" viewBox="0 0 18 18" enable-background="new 0 0 18 18" xml:space="preserve">
<g>
	<path fill="#69737B" d="M4.647,4.206H2.985c-0.152,0-0.279,0.126-0.279,0.28c0,0.153,0.127,0.279,0.279,0.279h1.662
		c0.152,0,0.279-0.126,0.279-0.279C4.927,4.332,4.8,4.206,4.647,4.206z"/>
	<path fill="#69737B" d="M4.647,8.999H2.985c-0.152,0-0.279,0.126-0.279,0.281c0,0.152,0.127,0.278,0.279,0.278h1.662
		c0.152,0,0.279-0.126,0.279-0.278C4.927,9.125,4.8,8.999,4.647,8.999z"/>
	<path fill="#69737B" d="M4.647,13.527H2.985c-0.152,0-0.279,0.127-0.279,0.281c0,0.152,0.127,0.279,0.279,0.279h1.662
		c0.152,0,0.279-0.127,0.279-0.279C4.927,13.654,4.8,13.527,4.647,13.527z"/>
	<path fill="#69737B" d="M13.489,4.895l-0.034-0.004V2.591c0-0.529-0.431-0.96-0.961-0.96H1.736c-0.529,0-0.96,0.431-0.96,0.96
		v12.815c0,0.53,0.431,0.961,0.96,0.961h10.758c0.53,0,0.961-0.431,0.961-0.961v-2.3c0.014-0.002,0.022-0.003,0.037-0.005
		c2.063-0.27,3.617-2.033,3.617-4.103S15.555,5.165,13.489,4.895z M1.776,15.406l-0.011-3.377h5.621
		c0.256,0,0.461-0.207,0.461-0.461c0-0.256-0.205-0.463-0.461-0.463H1.762L1.75,7.358h5.635c0.256,0,0.461-0.207,0.461-0.462
		c0-0.256-0.205-0.462-0.461-0.462H1.748L1.736,2.631l10.719-0.04V4.89l-0.041,0.005c-2.062,0.268-3.616,2.032-3.616,4.103
		c0,2.058,1.536,3.81,3.659,4.106l0.037,2.263L1.776,15.406z M13.274,12.122c-0.208,0.031-0.329,0.045-0.731-0.013
		c-1.564-0.202-2.745-1.54-2.745-3.111c0-1.57,1.18-2.908,2.742-3.111l0.128-0.017c0.094-0.013,0.187-0.028,0.285-0.028
		c0.1,0,0.194,0.015,0.289,0.028l0.121,0.016c1.565,0.205,2.746,1.542,2.746,3.112C16.109,10.567,14.929,11.905,13.274,12.122z"/>
	<path fill="#69737B" d="M14.459,8.56h-1.174V7.382c0-0.181-0.148-0.327-0.332-0.327c-0.182,0-0.328,0.146-0.328,0.327V8.56h-1.178
		c-0.182,0-0.328,0.147-0.328,0.33c0,0.182,0.146,0.329,0.328,0.329h1.178v1.175c0,0.182,0.146,0.33,0.328,0.33
		c0.184,0,0.332-0.148,0.332-0.33V9.219h1.174c0.182,0,0.33-0.147,0.33-0.329C14.789,8.708,14.641,8.56,14.459,8.56z"/>
</g>
</svg>
