<?xml version="1.0" encoding="utf-8"?>
<!-- Generator: Adobe Illustrator 16.0.0, SVG Export Plug-In . SVG Version: 6.00 Build 0)  -->
<!DOCTYPE svg PUBLIC "-//W3C//DTD SVG 1.1//EN" "http://www.w3.org/Graphics/SVG/1.1/DTD/svg11.dtd">
<svg version="1.1" id="Layer_1" xmlns="http://www.w3.org/2000/svg" xmlns:xlink="http://www.w3.org/1999/xlink" x="0px" y="0px"
	 width="20px" height="20px" viewBox="0 0 20 20" enable-background="new 0 0 20 20" xml:space="preserve">
<g>
	<g>
		<path fill="#FFFFFF" d="M8.899,17.381H2.676c-0.308,0-0.558-0.25-0.558-0.557V3.176c0-0.307,0.25-0.557,0.558-0.557h13.648
			c0.307,0,0.557,0.25,0.557,0.557v5.916c0,0.387,0.314,0.701,0.701,0.701s0.699-0.314,0.699-0.701V3.176
			c0-1.079-0.877-1.957-1.957-1.957H2.676c-1.079,0-1.958,0.878-1.958,1.957v13.648c0,1.078,0.879,1.957,1.958,1.957h6.223
			c0.387,0,0.7-0.314,0.7-0.701S9.286,17.381,8.899,17.381z"/>
		<path fill="#FFFFFF" d="M15.199,5.615c0-0.345-0.281-0.625-0.625-0.625H7.173c-0.345,0-0.625,0.28-0.625,0.625
			c0,0.346,0.28,0.625,0.625,0.625h7.401C14.918,6.24,15.199,5.961,15.199,5.615z"/>
		<path fill="#FFFFFF" d="M11.563,9.406c0-0.346-0.281-0.625-0.625-0.625H7.173c-0.345,0-0.625,0.279-0.625,0.625
			c0,0.345,0.28,0.625,0.625,0.625h3.764C11.281,10.031,11.563,9.751,11.563,9.406z"/>
		<path fill="#FFFFFF" d="M7.173,12.572c-0.345,0-0.625,0.279-0.625,0.625s0.28,0.625,0.625,0.625H8.68
			c0.345,0,0.625-0.279,0.625-0.625s-0.28-0.625-0.625-0.625H7.173z"/>
		<path fill="#FFFFFF" d="M5.171,4.99H4.468c-0.345,0-0.625,0.28-0.625,0.625c0,0.346,0.28,0.625,0.625,0.625h0.703
			c0.345,0,0.625-0.279,0.625-0.625C5.796,5.271,5.516,4.99,5.171,4.99z"/>
		<path fill="#FFFFFF" d="M5.171,8.781H4.468c-0.345,0-0.625,0.279-0.625,0.625c0,0.345,0.28,0.625,0.625,0.625h0.703
			c0.345,0,0.625-0.279,0.625-0.625C5.796,9.061,5.516,8.781,5.171,8.781z"/>
		<path fill="#FFFFFF" d="M5.171,12.572H4.468c-0.345,0-0.625,0.279-0.625,0.625s0.28,0.625,0.625,0.625h0.703
			c0.345,0,0.625-0.279,0.625-0.625S5.516,12.572,5.171,12.572z"/>
	</g>
</g>
<path fill="#FFFFFF" d="M10.448,15.801l3.792,3.184c0.029,0.027,0.059,0.041,0.08,0.051c0.037,0.023,0.084,0.055,0.137,0.07
	c0.041,0.016,0.078,0.023,0.111,0.027l0.02,0.004c0.027,0.01,0.072,0.018,0.121,0.016l0.08-0.01
	c0.158-0.016,0.287-0.066,0.391-0.154l3.795-3.188c0.145-0.121,0.232-0.289,0.248-0.477s-0.041-0.369-0.162-0.512
	c-0.131-0.154-0.328-0.244-0.541-0.244c-0.166,0-0.326,0.057-0.447,0.16l-2.676,2.246v-5.873c0-0.387-0.314-0.7-0.701-0.7
	s-0.701,0.313-0.701,0.7v5.846l-2.643-2.219c-0.123-0.104-0.281-0.158-0.448-0.158c-0.213,0-0.411,0.088-0.54,0.242
	c-0.121,0.143-0.179,0.324-0.163,0.512C10.217,15.51,10.305,15.68,10.448,15.801z"/>
</svg>
