<?xml version="1.0" encoding="utf-8"?>
<!-- Generator: Adobe Illustrator 16.0.0, SVG Export Plug-In . SVG Version: 6.00 Build 0)  -->
<!DOCTYPE svg PUBLIC "-//W3C//DTD SVG 1.1//EN" "http://www.w3.org/Graphics/SVG/1.1/DTD/svg11.dtd">
<svg version="1.1" id="Layer_1" xmlns="http://www.w3.org/2000/svg" xmlns:xlink="http://www.w3.org/1999/xlink" x="0px" y="0px"
	 width="20px" height="20px" viewBox="0 0 20 20" enable-background="new 0 0 20 20" xml:space="preserve">
<g>
	<g>
		<path fill="#FFFFFF" d="M8.9,17.381H2.678c-0.308,0-0.558-0.25-0.558-0.557V3.176c0-0.307,0.25-0.557,0.558-0.557h13.648
			c0.307,0,0.557,0.25,0.557,0.557v5.916c0,0.387,0.314,0.701,0.701,0.701s0.699-0.314,0.699-0.701V3.176
			c0-1.079-0.877-1.957-1.957-1.957H2.678c-1.079,0-1.958,0.878-1.958,1.957v13.648c0,1.078,0.879,1.957,1.958,1.957H8.9
			c0.387,0,0.7-0.314,0.7-0.701S9.287,17.381,8.9,17.381z"/>
		<path fill="#FFFFFF" d="M15.201,5.615c0-0.345-0.281-0.625-0.625-0.625H7.175c-0.345,0-0.625,0.28-0.625,0.625
			c0,0.346,0.28,0.625,0.625,0.625h7.401C14.92,6.24,15.201,5.961,15.201,5.615z"/>
		<path fill="#FFFFFF" d="M10.2,9.406c0-0.346-0.28-0.625-0.625-0.625h-2.4c-0.345,0-0.625,0.279-0.625,0.625
			s0.28,0.625,0.625,0.625h2.4C9.92,10.031,10.2,9.752,10.2,9.406z"/>
		<path fill="#FFFFFF" d="M5.173,4.99H4.47c-0.345,0-0.625,0.28-0.625,0.625c0,0.346,0.28,0.625,0.625,0.625h0.703
			c0.345,0,0.625-0.279,0.625-0.625C5.798,5.271,5.518,4.99,5.173,4.99z"/>
		<path fill="#FFFFFF" d="M5.173,8.781H4.47c-0.345,0-0.625,0.279-0.625,0.625s0.28,0.625,0.625,0.625h0.703
			c0.345,0,0.625-0.279,0.625-0.625S5.518,8.781,5.173,8.781z"/>
	</g>
</g>
<path fill="#FFFFFF" d="M18.977,13.754l-3.791-3.185c-0.029-0.025-0.059-0.039-0.08-0.049c-0.037-0.025-0.084-0.055-0.139-0.072
	c-0.039-0.016-0.076-0.021-0.109-0.027l-0.021-0.004c-0.025-0.008-0.07-0.016-0.119-0.016l-0.08,0.012
	c-0.16,0.016-0.287,0.066-0.391,0.154l-3.796,3.187c-0.144,0.119-0.231,0.289-0.248,0.477c-0.016,0.186,0.042,0.367,0.162,0.51
	c0.13,0.156,0.328,0.244,0.542,0.244c0.167,0,0.325-0.057,0.446-0.158l2.678-2.248v5.873c0,0.387,0.314,0.701,0.701,0.701
	s0.701-0.314,0.701-0.701v-5.844l2.643,2.219c0.121,0.102,0.279,0.158,0.447,0.158c0.213,0,0.41-0.09,0.539-0.244
	c0.121-0.143,0.18-0.324,0.164-0.51C19.207,14.043,19.121,13.873,18.977,13.754z"/>
</svg>
