<?xml version="1.0" encoding="utf-8"?>
<!-- Generator: Adobe Illustrator 16.0.0, SVG Export Plug-In . SVG Version: 6.00 Build 0)  -->
<!DOCTYPE svg PUBLIC "-//W3C//DTD SVG 1.1//EN" "http://www.w3.org/Graphics/SVG/1.1/DTD/svg11.dtd">
<svg version="1.1" id="Layer_1" xmlns="http://www.w3.org/2000/svg" xmlns:xlink="http://www.w3.org/1999/xlink" x="0px" y="0px"
	 width="20px" height="20px" viewBox="0 0 20 20" enable-background="new 0 0 20 20" xml:space="preserve">
<g>
	<g>
		<path fill="#FFFFFF" d="M8.899,17.411H2.677c-0.308,0-0.558-0.249-0.558-0.557V3.207c0-0.307,0.25-0.557,0.558-0.557h13.647
			c0.307,0,0.557,0.25,0.557,0.557v5.917c0,0.387,0.314,0.7,0.701,0.7s0.699-0.313,0.699-0.7V3.207c0-1.079-0.877-1.957-1.957-1.957
			H2.677c-1.079,0-1.958,0.878-1.958,1.957v13.648c0,1.079,0.879,1.957,1.958,1.957h6.223c0.386,0,0.701-0.313,0.701-0.7
			S9.286,17.411,8.899,17.411z"/>
		<path fill="#FFFFFF" d="M15.199,5.646c0-0.345-0.281-0.625-0.625-0.625h-7.4c-0.345,0-0.625,0.28-0.625,0.625
			s0.28,0.625,0.625,0.625h7.4C14.918,6.271,15.199,5.992,15.199,5.646z"/>
		<path fill="#FFFFFF" d="M10.2,9.438c0-0.346-0.281-0.625-0.625-0.625H7.174c-0.345,0-0.625,0.279-0.625,0.625
			c0,0.345,0.28,0.625,0.625,0.625h2.401C9.918,10.063,10.2,9.782,10.2,9.438z"/>
		<path fill="#FFFFFF" d="M7.174,12.603c-0.345,0-0.625,0.28-0.625,0.625s0.28,0.625,0.625,0.625h1.507
			c0.345,0,0.625-0.28,0.625-0.625s-0.28-0.625-0.625-0.625H7.174z"/>
		<path fill="#FFFFFF" d="M5.172,5.021H4.469c-0.345,0-0.625,0.28-0.625,0.625s0.28,0.625,0.625,0.625h0.703
			c0.345,0,0.625-0.28,0.625-0.625S5.517,5.021,5.172,5.021z"/>
		<path fill="#FFFFFF" d="M5.172,8.813H4.469c-0.345,0-0.625,0.279-0.625,0.625c0,0.345,0.28,0.625,0.625,0.625h0.703
			c0.345,0,0.625-0.28,0.625-0.625C5.797,9.092,5.517,8.813,5.172,8.813z"/>
		<path fill="#FFFFFF" d="M5.172,12.603H4.469c-0.345,0-0.625,0.28-0.625,0.625s0.28,0.625,0.625,0.625h0.703
			c0.345,0,0.625-0.28,0.625-0.625S5.517,12.603,5.172,12.603z"/>
	</g>
	<path fill="#FFFFFF" d="M16.172,14.729l2.908-2.906c0.268-0.269,0.268-0.705,0-0.973c-0.246-0.25-0.725-0.25-0.973-0.002
		l-2.908,2.908l-2.908-2.908c-0.248-0.248-0.727-0.248-0.973,0c-0.129,0.13-0.201,0.303-0.201,0.487s0.072,0.358,0.201,0.487
		l2.906,2.906l-2.906,2.907c-0.129,0.13-0.201,0.303-0.201,0.487c0,0.184,0.07,0.356,0.201,0.485
		c0.248,0.251,0.725,0.251,0.973,0.001l2.908-2.906l2.908,2.906c0.129,0.131,0.301,0.202,0.486,0.202
		c0.184,0,0.357-0.071,0.486-0.202c0.129-0.129,0.201-0.303,0.201-0.486c0-0.185-0.072-0.357-0.201-0.487L16.172,14.729z"/>
</g>
</svg>
