<?xml version="1.0" encoding="utf-8"?>
<!-- Generator: Adobe Illustrator 16.0.0, SVG Export Plug-In . SVG Version: 6.00 Build 0)  -->
<!DOCTYPE svg PUBLIC "-//W3C//DTD SVG 1.1//EN" "http://www.w3.org/Graphics/SVG/1.1/DTD/svg11.dtd">
<svg version="1.1" id="Layer_1" xmlns="http://www.w3.org/2000/svg" xmlns:xlink="http://www.w3.org/1999/xlink" x="0px" y="0px"
	 width="20px" height="20px" viewBox="0 0 20 20" enable-background="new 0 0 20 20" xml:space="preserve">
<g>
	<g>
		<path fill="#FFFFFF" d="M8.362,17.379H2.139c-0.308,0-0.558-0.248-0.558-0.557V3.175c0-0.307,0.25-0.557,0.558-0.557h13.65
			c0.307,0,0.557,0.25,0.557,0.557v5.917c0,0.387,0.313,0.7,0.699,0.7s0.701-0.313,0.701-0.7V3.175c0-1.079-0.879-1.957-1.957-1.957
			H2.139c-1.079,0-1.958,0.878-1.958,1.957v13.647c0,1.08,0.879,1.957,1.958,1.957h6.223c0.387,0,0.7-0.313,0.7-0.699
			S8.749,17.379,8.362,17.379z"/>
		<path fill="#FFFFFF" d="M14.662,5.615c0-0.345-0.279-0.625-0.625-0.625h-7.4c-0.345,0-0.625,0.28-0.625,0.625
			S6.292,6.24,6.637,6.24h7.4C14.383,6.24,14.662,5.96,14.662,5.615z"/>
		<path fill="#FFFFFF" d="M14.662,9.406c0-0.345-0.279-0.625-0.625-0.625h-7.4c-0.345,0-0.625,0.28-0.625,0.625
			s0.28,0.625,0.625,0.625h7.4C14.383,10.031,14.662,9.751,14.662,9.406z"/>
		<path fill="#FFFFFF" d="M6.637,12.57c-0.345,0-0.625,0.281-0.625,0.625c0,0.346,0.28,0.625,0.625,0.625h1.507
			c0.345,0,0.625-0.279,0.625-0.625c0-0.344-0.28-0.625-0.625-0.625H6.637z"/>
		<path fill="#FFFFFF" d="M4.635,4.99H3.932c-0.345,0-0.625,0.28-0.625,0.625S3.586,6.24,3.932,6.24h0.703
			c0.345,0,0.625-0.28,0.625-0.625S4.979,4.99,4.635,4.99z"/>
		<path fill="#FFFFFF" d="M4.635,8.781H3.932c-0.345,0-0.625,0.28-0.625,0.625s0.28,0.625,0.625,0.625h0.703
			c0.345,0,0.625-0.28,0.625-0.625S4.979,8.781,4.635,8.781z"/>
		<path fill="#FFFFFF" d="M4.635,12.57H3.932c-0.345,0-0.625,0.281-0.625,0.625c0,0.346,0.28,0.625,0.625,0.625h0.703
			c0.345,0,0.625-0.279,0.625-0.625C5.26,12.852,4.979,12.57,4.635,12.57z"/>
	</g>
	<path fill="#FFFFFF" d="M19.547,11.465c-0.295-0.24-0.803-0.188-1.041,0.105l-4.375,5.373l-2.742-2.744
		c-0.268-0.268-0.777-0.268-1.045,0c-0.139,0.141-0.216,0.326-0.216,0.523s0.077,0.383,0.216,0.523l3.317,3.314
		c0.016,0.018,0.031,0.029,0.037,0.023c0.006,0.008,0.02,0.023,0.027,0.029c0.02,0.016,0.039,0.025,0.055,0.033l0.029,0.018
		c0.035,0.023,0.076,0.049,0.123,0.066c0.063,0.023,0.127,0.031,0.193,0.039c0.014,0.004,0.035,0.01,0.061,0.01c0,0,0.023,0,0.025,0
		c0.094-0.004,0.188-0.025,0.273-0.064c0.043-0.02,0.076-0.045,0.105-0.068l0.029-0.021c0.006-0.006,0.014-0.01,0.021-0.014
		c0.02-0.012,0.043-0.025,0.078-0.066c0.012-0.006,0.029-0.018,0.047-0.037l4.887-6.004C19.908,12.189,19.861,11.723,19.547,11.465z
		 M14.186,18.68L14.186,18.68L14.186,18.68L14.186,18.68z"/>
</g>
</svg>
