<?xml version="1.0" encoding="utf-8"?>
<!-- Generator: Adobe Illustrator 16.0.0, SVG Export Plug-In . SVG Version: 6.00 Build 0)  -->
<!DOCTYPE svg PUBLIC "-//W3C//DTD SVG 1.1//EN" "http://www.w3.org/Graphics/SVG/1.1/DTD/svg11.dtd">
<svg version="1.1" id="Layer_1" xmlns="http://www.w3.org/2000/svg" xmlns:xlink="http://www.w3.org/1999/xlink" x="0px" y="0px"
	 width="20px" height="20px" viewBox="0 0 20 20" enable-background="new 0 0 20 20" xml:space="preserve">
<g>
	<g>
		<path fill="#69737B" d="M8.729,15.758c-0.218,0.008-0.438-0.072-0.604-0.238l-5.463-5.462c-0.318-0.319-0.318-0.836,0-1.155
			c0.32-0.318,0.834-0.318,1.155,0l5.463,5.463c0.318,0.318,0.318,0.836-0.001,1.154C9.125,15.672,8.927,15.752,8.729,15.758z"/>
	</g>
	<g>
		<path fill="#69737B" d="M8.712,15.758c-0.181,0-0.363-0.059-0.514-0.182c-0.35-0.287-0.402-0.799-0.117-1.148l8.047-9.885
			c0.287-0.349,0.799-0.402,1.149-0.117c0.35,0.286,0.401,0.799,0.118,1.148l-8.049,9.885C9.185,15.656,8.95,15.758,8.712,15.758z"
			/>
	</g>
</g>
</svg>
