<?xml version="1.0" encoding="utf-8"?>
<!-- Generator: Adobe Illustrator 16.0.0, SVG Export Plug-In . SVG Version: 6.00 Build 0)  -->
<!DOCTYPE svg PUBLIC "-//W3C//DTD SVG 1.1//EN" "http://www.w3.org/Graphics/SVG/1.1/DTD/svg11.dtd">
<svg version="1.1" id="Layer_1" xmlns="http://www.w3.org/2000/svg" xmlns:xlink="http://www.w3.org/1999/xlink" x="0px" y="0px"
	 width="20px" height="20px" viewBox="0 0 20 20" enable-background="new 0 0 20 20" xml:space="preserve">
<g>
	<path fill="#6E90C1" d="M10,1.53c-4.67,0-8.47,3.8-8.47,8.47c0,4.671,3.799,8.47,8.47,8.47c4.67,0,8.471-3.799,8.471-8.47
		C18.471,5.33,14.67,1.53,10,1.53z M9.161,6.294c0-0.461,0.374-0.834,0.835-0.834c0.46,0,0.835,0.373,0.835,0.834v5.05
		c0,0.462-0.375,0.835-0.835,0.835c-0.461,0-0.835-0.373-0.835-0.835V6.294z M10,14.542c-0.462,0-0.839-0.377-0.839-0.84
		c0-0.464,0.376-0.839,0.839-0.839c0.463,0,0.84,0.375,0.84,0.839C10.84,14.165,10.463,14.542,10,14.542z"/>
</g>
<path fill="#FFFFFF" d="M9.996,12.178c0.46,0,0.835-0.373,0.835-0.834v-5.05c0-0.461-0.375-0.834-0.835-0.834
	c-0.461,0-0.835,0.373-0.835,0.834v5.05C9.161,11.805,9.534,12.178,9.996,12.178z"/>
<circle fill="#FFFFFF" cx="10" cy="13.702" r="0.839"/>
</svg>
