<?xml version="1.0" encoding="utf-8"?>
<!-- Generator: Adobe Illustrator 16.0.0, SVG Export Plug-In . SVG Version: 6.00 Build 0)  -->
<!DOCTYPE svg PUBLIC "-//W3C//DTD SVG 1.1//EN" "http://www.w3.org/Graphics/SVG/1.1/DTD/svg11.dtd">
<svg version="1.1" id="Layer_1" xmlns="http://www.w3.org/2000/svg" xmlns:xlink="http://www.w3.org/1999/xlink" x="0px" y="0px"
	 width="20px" height="20px" viewBox="0 0 20 20" enable-background="new 0 0 20 20" xml:space="preserve">
<g>
	<path fill="#727373" d="M10,1.53c-4.67,0-8.47,3.8-8.47,8.47c0,4.672,3.799,8.471,8.47,8.471s8.471-3.799,8.471-8.471
		C18.471,5.33,14.67,1.53,10,1.53z M10,17.666c-4.227,0-7.665-3.438-7.665-7.667c0-4.226,3.438-7.666,7.665-7.666
		c4.227,0,7.667,3.439,7.667,7.666C17.666,14.229,14.227,17.666,10,17.666z"/>
	<path fill="#727373" d="M9.996,12.18c0.46,0,0.835-0.373,0.835-0.836v-5.05c0-0.461-0.375-0.834-0.835-0.834
		c-0.461,0-0.835,0.373-0.835,0.834v5.05C9.161,11.807,9.534,12.18,9.996,12.18z"/>
	<circle fill="#727373" cx="10" cy="13.703" r="0.84"/>
</g>
</svg>
