<?xml version="1.0" encoding="utf-8"?>
<!-- Generator: Adobe Illustrator 16.0.0, SVG Export Plug-In . SVG Version: 6.00 Build 0)  -->
<!DOCTYPE svg PUBLIC "-//W3C//DTD SVG 1.1//EN" "http://www.w3.org/Graphics/SVG/1.1/DTD/svg11.dtd">
<svg version="1.1" id="Layer_1" xmlns="http://www.w3.org/2000/svg" xmlns:xlink="http://www.w3.org/1999/xlink" x="0px" y="0px"
	 width="15px" height="15px" viewBox="0 0 15 15" enable-background="new 0 0 15 15" xml:space="preserve">
<g>
	<path fill="#727373" d="M2.535,10.495c1.102,1.101,2.543,1.65,3.985,1.65c1.162,0,2.324-0.356,3.305-1.071l2.625,2.625
		c0.174,0.174,0.402,0.26,0.631,0.26c0.227,0,0.455-0.086,0.629-0.26c0.348-0.348,0.348-0.911,0-1.258l-2.625-2.625
		c1.6-2.202,1.406-5.304-0.58-7.29c-1.1-1.099-2.543-1.65-3.984-1.65c-1.442,0-2.883,0.551-3.985,1.652
		C0.335,4.728,0.335,8.296,2.535,10.495z M2.13,6.513c0-1.174,0.456-2.276,1.286-3.105c0.829-0.83,1.931-1.287,3.105-1.287
		c1.172,0,2.273,0.457,3.104,1.287c1.711,1.712,1.711,4.498,0,6.208c-0.83,0.83-1.932,1.287-3.104,1.287
		c-1.174,0-2.276-0.457-3.105-1.287C2.586,8.786,2.13,7.683,2.13,6.513z"/>
</g>
</svg>
