<?xml version="1.0" encoding="utf-8"?>
<!-- Generator: Adobe Illustrator 16.0.0, SVG Export Plug-In . SVG Version: 6.00 Build 0)  -->
<!DOCTYPE svg PUBLIC "-//W3C//DTD SVG 1.1//EN" "http://www.w3.org/Graphics/SVG/1.1/DTD/svg11.dtd">
<svg version="1.1" id="Layer_1" xmlns="http://www.w3.org/2000/svg" xmlns:xlink="http://www.w3.org/1999/xlink" x="0px" y="0px"
	 width="20px" height="20px" viewBox="0 0 20 20" enable-background="new 0 0 20 20" xml:space="preserve">
<g>
	<path fill="#FFFFFF" d="M3.324,14.199c1.502,1.502,3.469,2.252,5.438,2.252c1.585,0,3.172-0.486,4.51-1.463l3.584,3.584
		c0.236,0.236,0.547,0.354,0.857,0.354s0.623-0.117,0.859-0.354c0.475-0.475,0.475-1.244,0-1.717l-3.582-3.582
		c2.184-3.005,1.92-7.238-0.791-9.949c-1.502-1.5-3.471-2.252-5.438-2.252c-1.969,0-3.936,0.752-5.438,2.254
		C0.322,6.328,0.322,11.197,3.324,14.199z M2.771,8.764c0-1.602,0.623-3.105,1.756-4.236c1.131-1.133,2.634-1.756,4.236-1.756
		c1.599,0,3.104,0.623,4.236,1.756c2.334,2.336,2.334,6.137,0,8.471c-1.133,1.133-2.635,1.756-4.236,1.756
		c-1.601,0-3.105-0.623-4.236-1.756C3.395,11.867,2.771,10.362,2.771,8.764z"/>
</g>
</svg>
