<?xml version="1.0" encoding="utf-8"?>
<!-- Generator: Adobe Illustrator 16.0.0, SVG Export Plug-In . SVG Version: 6.00 Build 0)  -->
<!DOCTYPE svg PUBLIC "-//W3C//DTD SVG 1.1//EN" "http://www.w3.org/Graphics/SVG/1.1/DTD/svg11.dtd">
<svg version="1.1" id="Layer_1" xmlns="http://www.w3.org/2000/svg" xmlns:xlink="http://www.w3.org/1999/xlink" x="0px" y="0px"
	 width="20px" height="20px" viewBox="0 0 20 20" enable-background="new 0 0 20 20" xml:space="preserve">
<g>
	<path fill="#69737B" d="M16.988,7.905c-0.19-0.028-0.382-0.038-0.546-0.048l-0.074-0.005c-0.079-0.198-0.16-0.398-0.245-0.602
		l-0.098-0.24c0.118-0.131,0.233-0.266,0.344-0.404c0.438-0.542,0.403-1.296-0.083-1.791c-0.366-0.371-0.735-0.738-1.106-1.104
		c-0.253-0.25-0.589-0.389-0.941-0.389c-0.321,0-0.636,0.118-0.886,0.33l-0.134,0.118c-0.081,0.069-0.157,0.137-0.245,0.199
		l-0.449-0.184c-0.124-0.05-0.246-0.101-0.38-0.161c-0.004-0.105-0.012-0.212-0.021-0.317L12.118,3.23
		c-0.061-0.827-0.612-1.34-1.439-1.34L9.208,1.893c-0.649,0-1.198,0.461-1.302,1.093c-0.022,0.14-0.031,0.278-0.043,0.42
		c-0.006,0.072-0.01,0.149-0.018,0.226C7.61,3.725,7.374,3.818,7.133,3.912l-0.13,0.051L6.948,3.917
		c-0.126-0.108-0.257-0.222-0.396-0.33C6.33,3.418,6.048,3.326,5.756,3.326c-0.343,0-0.673,0.129-0.904,0.351
		C4.478,4.04,4.085,4.432,3.687,4.846C3.225,5.326,3.193,6.057,3.61,6.582c0.116,0.145,0.238,0.286,0.363,0.424l0.006,0.008
		C3.862,7.289,3.748,7.566,3.632,7.853C3.565,7.854,3.5,7.858,3.436,7.863L3.357,7.868C3.309,7.873,3.26,7.876,3.209,7.877
		c-0.775,0.035-1.317,0.6-1.318,1.371v1.537c0.001,0.618,0.416,1.146,1.009,1.279c0.191,0.044,0.386,0.056,0.573,0.068l0.156,0.01
		c0.111,0.28,0.225,0.56,0.347,0.839c-0.117,0.13-0.231,0.262-0.342,0.396c-0.439,0.527-0.415,1.294,0.058,1.784
		c0.372,0.383,0.758,0.77,1.148,1.146c0.241,0.231,0.566,0.361,0.916,0.361c0.312,0,0.612-0.104,0.845-0.294
		c0.137-0.113,0.272-0.229,0.41-0.356c0.345,0.148,0.607,0.26,0.842,0.35c0.005,0.148,0.018,0.298,0.028,0.472
		c0.052,0.732,0.621,1.267,1.359,1.268l0.832,0.003c0.24,0,0.479,0,0.719-0.003c0.659-0.001,1.222-0.494,1.306-1.146
		c0.024-0.188,0.036-0.376,0.05-0.594l0.345-0.139c0.163-0.067,0.332-0.137,0.506-0.203c0.127,0.112,0.258,0.224,0.391,0.334
		c0.239,0.2,0.545,0.309,0.859,0.309c0.356,0,0.69-0.137,0.942-0.384c0.37-0.362,0.734-0.73,1.099-1.098
		c0.516-0.522,0.538-1.276,0.058-1.837l-0.096-0.106c-0.078-0.088-0.15-0.172-0.22-0.263c0.111-0.28,0.228-0.558,0.347-0.833
		c0.076-0.006,0.151-0.011,0.228-0.016l0.191-0.012c0.797-0.051,1.313-0.599,1.313-1.397v-1.51C18.108,8.553,17.637,8,16.988,7.905z
		 M16.843,11.136c-0.226,0.027-0.451,0.044-0.677,0.061l-0.173,0.011c-0.224,0.017-0.382,0.141-0.448,0.356
		c-0.129,0.446-0.305,0.868-0.52,1.254c-0.106,0.191-0.078,0.404,0.079,0.582c0.131,0.15,0.262,0.302,0.393,0.454l0.104,0.119
		c0.159,0.184,0.153,0.379-0.021,0.551c-0.35,0.353-0.702,0.707-1.055,1.058c-0.17,0.166-0.378,0.169-0.563,0.015l-0.555-0.483
		c-0.08-0.067-0.189-0.145-0.342-0.145c-0.098,0-0.187,0.031-0.261,0.062c-0.411,0.179-0.825,0.347-1.238,0.513
		c-0.229,0.088-0.351,0.245-0.366,0.462l-0.009,0.128c-0.016,0.235-0.032,0.467-0.058,0.699c-0.019,0.177-0.166,0.311-0.343,0.313
		c-0.535,0.002-1.068,0.002-1.6,0c-0.184-0.002-0.337-0.152-0.351-0.345l-0.055-0.796c-0.015-0.226-0.143-0.391-0.354-0.453
		c-0.447-0.132-0.874-0.311-1.264-0.525C7.095,14.98,7.016,14.96,6.936,14.96c-0.117,0-0.226,0.044-0.326,0.132l-0.564,0.487
		c-0.213,0.188-0.398,0.18-0.599-0.019c-0.345-0.345-0.686-0.688-1.026-1.035c-0.178-0.178-0.184-0.365-0.018-0.559
		c0.123-0.145,0.247-0.287,0.371-0.43l0.107-0.125c0.192-0.225,0.174-0.403,0.081-0.616c-0.188-0.432-0.351-0.826-0.5-1.212
		c-0.038-0.087-0.145-0.36-0.497-0.381c-0.221-0.012-0.509-0.03-0.794-0.065c-0.2-0.022-0.315-0.159-0.316-0.369
		c-0.001-0.507-0.001-1.012,0-1.521C2.855,9,2.989,8.862,3.242,8.844l0.755-0.053c0.224-0.013,0.388-0.139,0.452-0.352
		c0.132-0.456,0.309-0.879,0.522-1.257C5.033,7.072,5.106,6.845,4.896,6.6c-0.167-0.187-0.332-0.379-0.497-0.57
		c-0.162-0.188-0.156-0.38,0.016-0.553c0.352-0.358,0.708-0.71,1.066-1.063C5.649,4.247,5.845,4.241,6.03,4.4
		C6.188,4.534,6.344,4.668,6.5,4.805l0.075,0.064C6.668,4.95,6.782,5.031,6.935,5.031c0.097,0,0.183-0.033,0.278-0.071
		c0.348-0.155,0.735-0.315,1.187-0.493C8.627,4.379,8.771,4.263,8.79,3.952c0.014-0.255,0.031-0.511,0.054-0.766
		C8.859,3,9.013,2.856,9.201,2.856c0.524-0.002,1.056-0.002,1.585,0c0.182,0,0.33,0.136,0.35,0.321
		c0.028,0.271,0.047,0.54,0.063,0.815c0.023,0.333,0.288,0.435,0.373,0.47c0.489,0.193,0.88,0.355,1.235,0.511
		c0.222,0.097,0.414,0.073,0.584-0.075l0.145-0.124c0.145-0.128,0.294-0.254,0.44-0.381c0.166-0.144,0.382-0.138,0.533,0.016
		c0.363,0.357,0.725,0.719,1.084,1.081c0.152,0.155,0.157,0.355,0.014,0.524c-0.164,0.196-0.332,0.391-0.505,0.582
		c-0.148,0.172-0.174,0.37-0.077,0.599c0.146,0.334,0.303,0.716,0.511,1.235c0.09,0.228,0.253,0.353,0.48,0.364l0.11,0.009
		c0.235,0.015,0.477,0.031,0.711,0.061c0.18,0.021,0.303,0.169,0.305,0.367v1.548C17.143,10.972,17.021,11.115,16.843,11.136z"/>
	<path fill="#69737B" d="M9.993,6.597c-1.869,0-3.395,1.525-3.397,3.402c0,1.869,1.523,3.395,3.396,3.4h0.012
		c1.87,0,3.395-1.524,3.397-3.4C13.405,8.134,11.876,6.606,9.993,6.597z M9.996,12.427c-0.653-0.002-1.265-0.256-1.722-0.716
		c-0.461-0.46-0.713-1.07-0.71-1.719c0.005-1.34,1.098-2.432,2.433-2.432h0.007c0.648,0.003,1.26,0.257,1.72,0.72
		c0.46,0.461,0.712,1.071,0.71,1.721C12.431,11.338,11.338,12.427,9.996,12.427z"/>
</g>
</svg>
